<mxfile host="app.diagrams.net" modified="2024-03-10T22:32:29.700Z" agent="Mozilla/5.0 (Windows NT 10.0; Win64; x64) AppleWebKit/537.36 (KHTML, like Gecko) Chrome/122.0.0.0 Safari/537.36 Edg/122.0.0.0" etag="_pKqSM1cELWQCZvWDelH" version="24.0.4" type="device">
  <diagram name="Página-1" id="uctH1dLE3MF50xIsBAmI">
    <mxGraphModel dx="1242" dy="569" grid="1" gridSize="10" guides="1" tooltips="1" connect="1" arrows="1" fold="1" page="1" pageScale="1" pageWidth="827" pageHeight="1169" math="0" shadow="0">
      <root>
        <mxCell id="0" />
        <mxCell id="1" parent="0" />
        <mxCell id="gJ47B-GUej3Y6ccG10hb-3" value="" style="edgeStyle=orthogonalEdgeStyle;rounded=0;orthogonalLoop=1;jettySize=auto;html=1;" edge="1" parent="1" source="gJ47B-GUej3Y6ccG10hb-1" target="gJ47B-GUej3Y6ccG10hb-2">
          <mxGeometry relative="1" as="geometry" />
        </mxCell>
        <mxCell id="gJ47B-GUej3Y6ccG10hb-1" value="INICIO" style="ellipse;whiteSpace=wrap;html=1;fillColor=#5EA9FF;" vertex="1" parent="1">
          <mxGeometry x="354" y="10" width="120" height="80" as="geometry" />
        </mxCell>
        <mxCell id="gJ47B-GUej3Y6ccG10hb-5" value="" style="edgeStyle=orthogonalEdgeStyle;rounded=0;orthogonalLoop=1;jettySize=auto;html=1;" edge="1" parent="1" source="gJ47B-GUej3Y6ccG10hb-2" target="gJ47B-GUej3Y6ccG10hb-4">
          <mxGeometry relative="1" as="geometry" />
        </mxCell>
        <mxCell id="gJ47B-GUej3Y6ccG10hb-2" value="&quot;Mostrar menú con 3 opciones&quot;" style="shape=parallelogram;perimeter=parallelogramPerimeter;whiteSpace=wrap;html=1;fixedSize=1;fillColor=#3CFF2E;" vertex="1" parent="1">
          <mxGeometry x="306" y="180" width="216" height="60" as="geometry" />
        </mxCell>
        <mxCell id="gJ47B-GUej3Y6ccG10hb-7" value="" style="edgeStyle=orthogonalEdgeStyle;rounded=0;orthogonalLoop=1;jettySize=auto;html=1;" edge="1" parent="1" source="gJ47B-GUej3Y6ccG10hb-4" target="gJ47B-GUej3Y6ccG10hb-6">
          <mxGeometry relative="1" as="geometry" />
        </mxCell>
        <mxCell id="gJ47B-GUej3Y6ccG10hb-9" value="" style="edgeStyle=orthogonalEdgeStyle;rounded=0;orthogonalLoop=1;jettySize=auto;html=1;entryX=0;entryY=0.5;entryDx=0;entryDy=0;" edge="1" parent="1" source="gJ47B-GUej3Y6ccG10hb-4" target="gJ47B-GUej3Y6ccG10hb-13">
          <mxGeometry relative="1" as="geometry">
            <mxPoint x="610" y="355" as="targetPoint" />
          </mxGeometry>
        </mxCell>
        <mxCell id="gJ47B-GUej3Y6ccG10hb-4" value="¿Se seleccionó una opción valida?" style="rhombus;whiteSpace=wrap;html=1;fillColor=#474D0A;" vertex="1" parent="1">
          <mxGeometry x="326" y="290" width="176" height="130" as="geometry" />
        </mxCell>
        <mxCell id="gJ47B-GUej3Y6ccG10hb-11" value="" style="edgeStyle=orthogonalEdgeStyle;rounded=0;orthogonalLoop=1;jettySize=auto;html=1;" edge="1" parent="1" source="gJ47B-GUej3Y6ccG10hb-6" target="gJ47B-GUej3Y6ccG10hb-10">
          <mxGeometry relative="1" as="geometry" />
        </mxCell>
        <mxCell id="gJ47B-GUej3Y6ccG10hb-6" value="SI" style="shape=parallelogram;perimeter=parallelogramPerimeter;whiteSpace=wrap;html=1;fixedSize=1;fillColor=#3CFF2E;" vertex="1" parent="1">
          <mxGeometry x="98" y="325" width="120" height="60" as="geometry" />
        </mxCell>
        <mxCell id="gJ47B-GUej3Y6ccG10hb-10" value="Mostrar mensaje: Opción válida seleccionada" style="shape=parallelogram;perimeter=parallelogramPerimeter;whiteSpace=wrap;html=1;fixedSize=1;fillColor=#3CFF2E;" vertex="1" parent="1">
          <mxGeometry x="62" y="480" width="192" height="60" as="geometry" />
        </mxCell>
        <mxCell id="gJ47B-GUej3Y6ccG10hb-12" value="FIN" style="ellipse;whiteSpace=wrap;html=1;fillColor=#5EA9FF;" vertex="1" parent="1">
          <mxGeometry x="610" y="460" width="120" height="80" as="geometry" />
        </mxCell>
        <mxCell id="gJ47B-GUej3Y6ccG10hb-15" value="" style="edgeStyle=orthogonalEdgeStyle;rounded=0;orthogonalLoop=1;jettySize=auto;html=1;" edge="1" parent="1" source="gJ47B-GUej3Y6ccG10hb-13" target="gJ47B-GUej3Y6ccG10hb-12">
          <mxGeometry relative="1" as="geometry" />
        </mxCell>
        <mxCell id="gJ47B-GUej3Y6ccG10hb-13" value="NO" style="shape=parallelogram;perimeter=parallelogramPerimeter;whiteSpace=wrap;html=1;fixedSize=1;fillColor=#3CFF2E;" vertex="1" parent="1">
          <mxGeometry x="610" y="325" width="120" height="60" as="geometry" />
        </mxCell>
        <mxCell id="gJ47B-GUej3Y6ccG10hb-14" style="edgeStyle=orthogonalEdgeStyle;rounded=0;orthogonalLoop=1;jettySize=auto;html=1;entryX=0.007;entryY=0.625;entryDx=0;entryDy=0;entryPerimeter=0;" edge="1" parent="1" source="gJ47B-GUej3Y6ccG10hb-10" target="gJ47B-GUej3Y6ccG10hb-12">
          <mxGeometry relative="1" as="geometry" />
        </mxCell>
      </root>
    </mxGraphModel>
  </diagram>
</mxfile>
